#!OML:ASF I:\Actors\actors\Patient Classification 2\Patient 1\Session 1\actor1.ASF
:FULLY-SPECIFIED
:DEGREES
356
root -0.700528 18.6997 5.67166 2.40067 -3.12876 -1.60981
lowerback -0.801346 1.47562 -0.206608
upperback -2.39837 1.96714 -0.0116696
thorax -2.01467 0.986781 0.0844367
lowerneck -6.63824 -2.49443 -1.91997
upperneck 32.1852 -4.21765 3.02235
head 11.6856 -1.78553 0.9663
rclavicle 3.78685e-014 1.39149e-015
rhumerus -36.4138 35.7794 -87.5372
rradius 118.311
rwrist -21.2914
rhand -6.02883 -30.7455
rfingers 7.12502
rthumb 19.8046 -59.7565
lclavicle 3.78685e-014 1.39149e-015
lhumerus -33.7514 -39.2534 94.0069
lradius 115.079
lwrist 34.3456
lhand -13.8885 -33.6725
lfingers 7.12502
lthumb 12.2366 -4.05042
rfemur 0 0 0
rtibia 0
rfoot 0 0
rtoes 0
lfemur -4.0429 -8.3524 -13.1084
ltibia 20.8641
lfoot -25.797 17.8699
ltoes -53.8243
357
root -0.701878 18.7006 5.67038 2.4295 -3.13885 -1.59832
lowerback -0.882189 1.47778 -0.146675
upperback -2.37925 1.96969 -0.0543926
thorax -1.94609 0.986502 0.00989075
lowerneck -6.61582 -2.45368 -1.82654
upperneck 32.1844 -4.13988 2.90837
head 11.673 -1.753 0.917032
rclavicle -1.02374e-014 1.19271e-015
rhumerus -35.8848 35.8737 -87.1866
rradius 118.155
rwrist -20.9049
rhand -6.30176 -30.3654
rfingers 7.12502
rthumb 19.5422 -59.4033
lclavicle -1.02374e-014 1.19271e-015
lhumerus -33.2515 -39.5278 93.5497
lradius 114.957
lwrist 34.0362
lhand -14.1999 -34.1939
lfingers 7.12502
lthumb 11.9364 -4.55416
rfemur 0 0 0
rtibia 0
rfoot 0 0
rtoes 0
lfemur -4.06914 -8.40013 -13.1156
ltibia 20.8595
lfoot -25.8768 17.8744
ltoes -53.7119
358
root -0.702827 18.701 5.66908 2.44069 -3.1448 -1.59337
lowerback -0.978096 1.47393 -0.107724
upperback -2.3479 1.96444 -0.0750433
thorax -1.858 0.982996 -0.0296291
lowerneck -6.52216 -2.41323 -1.72866
upperneck 32.1194 -4.06555 2.80693
head 11.6206 -1.72147 0.871991
rclavicle 2.0686e-014 4.17448e-015
rhumerus -35.3694 35.9962 -86.8026
rradius 118.024
rwrist -20.7623
rhand -6.7355 -30.3872
rfingers 7.12502
rthumb 19.1252 -59.4668
lclavicle 2.0686e-014 4.17448e-015
lhumerus -32.737 -39.7341 93.1043
lradius 114.786
lwrist 33.8623
lhand -14.4304 -34.6231
lfingers 7.12502
lthumb 11.714 -4.97062
rfemur 0 0 0
rtibia 0
rfoot 0 0
rtoes 0
lfemur -4.0765 -8.40161 -13.1148
ltibia 20.844
lfoot -25.8645 17.8684
ltoes -53.6714
359
root -0.704151 18.7 5.66801 2.41978 -3.15251 -1.56971
lowerback -1.04191 1.45949 -0.162717
upperback -2.32442 1.94562 -0.0437588
thorax -1.80098 0.974872 0.0354633
lowerneck -6.41104 -2.37248 -1.73479
upperneck 32.1092 -3.98553 2.74324
head 11.59 -1.69487 0.860272
rclavicle 3.26628e-014 2.98177e-015
rhumerus -34.9684 36.2002 -86.4218
rradius 117.882
rwrist -20.7112
rhand -7.09424 -30.2815
rfingers 7.12502
rthumb 18.7802 -59.3949
lclavicle 3.26628e-014 2.98177e-015
lhumerus -32.3206 -39.8522 92.7437
lradius 114.657
lwrist 33.795
lhand -14.6162 -35.0243
lfingers 7.12502
lthumb 11.5349 -5.36174
rfemur 0 0 0
rtibia 0
rfoot 0 0
rtoes 0
lfemur -4.04647 -8.36154 -13.1387
ltibia 20.8222
lfoot -25.8036 17.8625
ltoes -53.7377
360
root -0.706101 18.6989 5.66643 2.36814 -3.15204 -1.51579
lowerback -1.05847 1.44574 -0.265375
upperback -2.30554 1.92773 -0.00729683
thorax -1.77693 0.968043 0.131019
lowerneck -6.31718 -2.32961 -1.82868
upperneck 32.1434 -3.90754 2.7443
head 11.5842 -1.67124 0.887632
rclavicle -2.00897e-014 -4.37326e-015
rhumerus -34.5651 36.3763 -86.023
rradius 117.716
rwrist -20.6798
rhand -7.17828 -29.8204
rfingers 7.12502
rthumb 18.6994 -58.9416
lclavicle -2.00897e-014 -4.37326e-015
lhumerus -31.9178 -39.9679 92.4075
lradius 114.565
lwrist 33.6953
lhand -14.7469 -35.1802
lfingers 7.12502
lthumb 11.4088 -5.51057
rfemur 0 0 0
rtibia 0
rfoot 0 0
rtoes 0
lfemur -3.98883 -8.33087 -13.1965
ltibia 20.7931
lfoot -25.7425 17.8737
ltoes -53.825
361
root -0.708181 18.6981 5.66475 2.31364 -3.12593 -1.47888
lowerback -1.0797 1.44897 -0.323075
upperback -2.28136 1.9323 0.0098083
thorax -1.74273 0.971431 0.181751
lowerneck -6.16897 -2.30519 -1.92336
upperneck 32.1017 -3.85964 2.76555
head 11.5385 -1.65999 0.919505
rclavicle 1.33931e-014 -2.5842e-015
rhumerus -34.1493 36.4472 -85.6257
rradius 117.6
rwrist -20.6842
rhand -7.33348 -29.5884
rfingers 7.12502
rthumb 18.5501 -58.7239
lclavicle 1.33931e-014 -2.5842e-015
lhumerus -31.4737 -40.1569 92.0791
lradius 114.5
lwrist 33.615
lhand -14.837 -35.2624
lfingers 7.12502
lthumb 11.322 -5.58803
rfemur 0 0 0
rtibia 0
rfoot 0 0
rtoes 0
lfemur -3.92633 -8.37607 -13.2318
ltibia 20.7551
lfoot -25.7103 17.8902
ltoes -53.7857
362
root -0.709425 18.6973 5.66388 2.26767 -3.0974 -1.42006
lowerback -1.1238 1.44175 -0.35922
upperback -2.24554 1.92258 -0.0106844
thorax -1.68165 0.966872 0.182893
lowerneck -5.97254 -2.25892 -1.92483
upperneck 31.9696 -3.77465 2.72195
head 11.4423 -1.62982 0.915406
rclavicle -6.4605e-016 -1.78906e-015
rhumerus -33.7474 36.5346 -85.283
rradius 117.595
rwrist -20.7759
rhand -7.62485 -29.5894
rfingers 7.12502
rthumb 18.2698 -58.7514
lclavicle -6.4605e-016 -1.78906e-015
lhumerus -31.0105 -40.3357 91.6702
lradius 114.479
lwrist 33.4859
lhand -14.9499 -35.5051
lfingers 7.12502
lthumb 11.2131 -5.82478
rfemur 0 0 0
rtibia 0
rfoot 0 0
rtoes 0
lfemur -3.86977 -8.42624 -13.2961
ltibia 20.7229
lfoot -25.7155 17.8911
ltoes -53.6957
363
root -0.710718 18.6962 5.66233 2.22324 -3.08893 -1.35257
lowerback -1.13228 1.42592 -0.384924
upperback -2.22013 1.90089 -0.0596429
thorax -1.64983 0.955922 0.147934
lowerneck -5.70791 -2.19718 -1.76345
upperneck 31.7834 -3.6515 2.5333
head 11.3037 -1.58121 0.834142
rclavicle 3.85145e-015 -5.96354e-016
rhumerus -33.3919 36.6444 -84.9968
rradius 117.733
rwrist -20.866
rhand -7.82771 -29.3333
rfingers 7.12502
rthumb 18.0746 -58.5134
lclavicle 3.85145e-015 -5.96354e-016
lhumerus -30.5453 -40.5002 91.1606
lradius 114.556
lwrist 33.168
lhand -15.077 -35.619
lfingers 7.12502
lthumb 11.0905 -5.93206
rfemur 0 0 0
rtibia 0
rfoot 0 0
rtoes 0
lfemur -3.82486 -8.42089 -13.3724
ltibia 20.7108
lfoot -25.6957 17.9041
ltoes -53.7321
364
root -0.712182 18.6957 5.66025 2.18489 -3.09363 -1.35816
lowerback -1.09599 1.42558 -0.364246
upperback -2.23348 1.90013 -0.0695604
thorax -1.68287 0.95515 0.124996
lowerneck -5.33621 -2.17919 -1.66721
upperneck 31.61 -3.59341 2.38261
head 11.154 -1.56613 0.772558
rclavicle -3.4104e-014 -4.77083e-015
rhumerus -33.1286 36.7474 -84.6967
rradius 117.991
rwrist -20.8564
rhand -8.11535 -28.9669
rfingers 7.12502
rthumb 17.7978 -58.1724
lclavicle -3.4104e-014 -4.77083e-015
lhumerus -30.1136 -40.6963 90.7024
lradius 114.759
lwrist 32.7606
lhand -15.1277 -35.7816
lfingers 7.12502
lthumb 11.0416 -6.09207
rfemur 0 0 0
rtibia 0
rfoot 0 0
rtoes 0
lfemur -3.78488 -8.42941 -13.3705
ltibia 20.7095
lfoot -25.6656 17.9562
ltoes -53.7955
365
root -0.714164 18.696 5.65915 2.14658 -3.12462 -1.40383
lowerback -1.08808 1.43658 -0.344194
upperback -2.24612 1.91518 -0.0364303
thorax -1.70085 0.962686 0.147177
lowerneck -4.90854 -2.16924 -1.77445
upperneck 31.4456 -3.58129 2.4575
head 11.0078 -1.57012 0.824904
rclavicle 4.48508e-015 5.96354e-016
rhumerus -32.7732 36.8683 -84.3086
rradius 118.28
rwrist -20.7336
rhand -8.28382 -28.6722
rfingers 7.12502
rthumb 17.6357 -57.8924
lclavicle 4.48508e-015 5.96354e-016
lhumerus -29.6795 -40.8809 90.2734
lradius 115.098
lwrist 32.3664
lhand -15.223 -36.1867
lfingers 7.12502
lthumb 10.9497 -6.49218
rfemur 0 0 0
rtibia 0
rfoot 0 0
rtoes 0
lfemur -3.7337 -8.44636 -13.3267
ltibia 20.7081
lfoot -25.65 18.02
ltoes -53.8089
366
root -0.716288 18.6958 5.65896 2.10444 -3.17845 -1.43598
lowerback -1.14095 1.4592 -0.344805
upperback -2.21411 1.94594 -0.0081409
thorax -1.63951 0.978235 0.178384
lowerneck -4.42909 -2.13596 -1.91521
upperneck 31.1585 -3.55012 2.61059
head 10.8064 -1.56172 0.913487
rclavicle -1.93691e-014 9.93923e-016
rhumerus -32.3251 36.9918 -83.8987
rradius 118.648
rwrist -20.476
rhand -8.42789 -28.2624
rfingers 7.12502
rthumb 17.4971 -57.495
lclavicle -1.93691e-014 9.93923e-016
lhumerus -29.1236 -41.0917 89.7407
lradius 115.564
lwrist 31.9604
lhand -15.5242 -36.5621
lfingers 7.12502
lthumb 10.6591 -6.85252
rfemur 0 0 0
rtibia 0
rfoot 0 0
rtoes 0
lfemur -3.67218 -8.44305 -13.2978
ltibia 20.7129
lfoot -25.6812 18.0327
ltoes -53.7825
367
root -0.71776 18.6952 5.65957 2.0904 -3.21322 -1.43717
lowerback -1.19936 1.47002 -0.271077
upperback -2.1919 1.95986 -0.0576779
thorax -1.57982 0.983486 0.0885494
lowerneck -3.93306 -2.09901 -1.93378
upperneck 30.8453 -3.49637 2.63889
head 10.5879 -1.54351 0.937287
rclavicle -8.32411e-016 -3.97569e-015
rhumerus -31.905 37.1386 -83.5884
rradius 119.148
rwrist -20.1472
rhand -8.83545 -27.8837
rfingers 7.12502
rthumb 17.1048 -57.1507
lclavicle -8.32411e-016 -3.97569e-015
lhumerus -28.4344 -41.3714 88.9816
lradius 116.127
lwrist 31.533
lhand -15.8181 -36.9371
lfingers 7.12502
lthumb 10.3757 -7.21306
rfemur 0 0 0
rtibia 0
rfoot 0 0
rtoes 0
lfemur -3.64753 -8.40015 -13.2952
ltibia 20.7209
lfoot -25.7077 17.9969
ltoes -53.7976
